<?xml version="1.0" encoding="UTF-8"?><svg xmlns="http://www.w3.org/2000/svg" viewBox="0 0 792 792"><g id="Background"><rect width="792" height="792" fill="#c00" stroke-width="0"/></g><g id="ILTech"><polygon points="211.68 320.44 153.51 320.44 153.51 214.55 128.47 214.55 128.47 342.78 211.68 342.78 211.68 320.44" fill="#fff" stroke-width="0"/><rect x="313.97" y="214.55" width="25.03" height="128.23" fill="#fff" stroke-width="0"/><path d="M660.46,321.53c-13.45,0-23.77-3.6-30.98-10.81l-16.21,16.21c11.28,11.29,26.89,16.93,46.82,16.93,13.21,0,24.13-3.12,32.78-9.36,9.84-6.96,14.77-16.81,14.77-29.53,0-21.49-11.47-33.86-34.4-37.1l-15.13-2.16c-10.57-1.44-15.85-6.18-15.85-14.23,0-5.4,2.05-9.54,6.14-12.43,3.49-2.52,8.07-3.78,13.73-3.78,11.32,0,20.11,2.94,26.37,8.82l15.89-15.67c-10.33-9.97-24.13-14.95-41.42-14.95-12.73,0-23.17,3.24-31.34,9.72-8.89,6.96-13.33,16.68-13.33,29.16,0,20.76,11.35,32.7,34.04,35.82l15.48,2.21c10.2,1.44,15.31,6.55,15.31,15.31,0,10.56-7.56,15.85-22.69,15.85h.02Z" fill="#fff" stroke-width="0"/><rect x="580.5" y="214.55" width="25.03" height="128.23" fill="#fff" stroke-width="0"/><rect x="84.35" y="214.55" width="25.03" height="128.23" fill="#fff" stroke-width="0"/><polygon points="304.42 320.44 246.25 320.44 246.25 214.55 221.22 214.55 221.22 342.78 304.42 342.78 304.42 320.44" fill="#fff" stroke-width="0"/><path d="M565.74,278.66c0-13.93-.54-23.59-1.62-28.99-1.8-9.12-5.52-16.51-11.17-22.15-9.36-9.36-20.89-14.05-34.58-14.05s-25.27,4.68-34.76,14.05c-5.76,5.65-9.49,13.03-11.17,22.15-.96,5.16-1.44,14.83-1.44,28.99s.48,24.07,1.44,28.99c1.8,9.25,5.52,16.63,11.17,22.15,9.48,9.36,21.07,14.05,34.76,14.05s25.09-4.68,34.58-14.05c5.88-5.76,9.6-13.15,11.17-22.15,1.08-6.24,1.62-15.91,1.62-28.99ZM540.7,278.66c0,18.49-1.62,29.9-4.86,34.22-4.32,5.76-10.15,8.64-17.47,8.64-13.09,0-20.41-8.04-21.97-24.13-.36-4.2-.48-10.45-.36-18.73v-18.73c1.94-16.09,9.32-24.13,22.15-24.13s20.7,8.05,22.15,24.13c.24,2.64.36,5.76.36,9.36v9.36h0Z" fill="#fff" stroke-width="0"/><polygon points="456.24 342.78 456.24 214.55 431.21 214.55 431.21 293.07 380.42 214.55 358.09 214.55 358.09 342.78 383.12 342.78 383.12 264.16 433.97 342.78 456.24 342.78" fill="#fff" stroke-width="0"/><polygon points="84.54 409.53 137.26 409.53 137.26 576.2 176.66 576.2 176.66 409.53 229.39 409.53 229.39 374.38 84.54 374.38 84.54 409.53" fill="#fff" stroke-width="0"/><path d="M438.37,421.15c6.42-8.88,15.59-13.32,27.5-13.32,18.14,0,29.48,9.54,34.01,28.63h39.97c-3.4-20.03-11.58-35.67-24.52-46.91-12.95-11.24-29.53-16.87-49.75-16.87-21.36,0-39.5,7.37-54.42,22.11-9.07,8.88-14.93,20.51-17.57,34.86-1.51,8.13-2.27,23.34-2.27,45.64s.75,37.89,2.27,45.64c2.83,14.36,8.69,25.98,17.57,34.86,14.74,14.74,32.88,22.11,54.42,22.11,20.03,0,36.61-5.67,49.75-17.01,13.13-11.34,21.3-26.93,24.52-46.77h-39.97c-4.73,19.09-16.06,28.63-34.01,28.63-20.6,0-32.13-12.66-34.58-37.98-.38-3.97-.57-7.75-.57-11.34v-18.14c0-28.91,2.55-46.96,7.65-54.14h0Z" fill="#fff" stroke-width="0"/><polygon points="663.33 456.87 595.01 456.87 595.01 374.38 555.61 374.38 555.61 576.2 595.01 576.2 595.01 492.01 663.33 492.01 663.33 576.2 702.73 576.2 702.73 374.38 663.33 374.38 663.33 456.87" fill="#fff" stroke-width="0"/><polygon points="247 576.2 379.94 576.2 379.94 541.05 286.4 541.05 286.4 492.01 366.05 492.01 366.05 456.87 286.4 456.87 286.4 409.53 379.94 409.53 379.94 374.38 247 374.38 247 576.2" fill="#fff" stroke-width="0"/></g></svg>